<svg xmlns="http://www.w3.org/2000/svg" width="95" height="116" viewBox="0 0 95 116" fill="none"><path d="M93.7468 45.6656C92.875 43.4626 91.9487 41.178 90.5592 39.2197V37.3158C90.5592 27.4973 86.1729 18.6851 79.2802 12.7015C80.8876 9.08417 82.0863 5.08604 82.8764 0.299172L81.1328 0.0271912C80.4517 4.2701 79.3892 7.96904 77.8363 11.5592C72.3057 7.28909 65.3857 4.70527 57.8664 4.70527C41.084 4.70527 27.2168 17.4068 25.3915 33.6713C21.4411 35.14 15.0932 37.6966 11.4697 40.3076C7.41038 43.2178 4.49527 45.992 2.75165 47.6511C2.17952 48.1951 1.71638 48.6302 1.3622 48.9294L0 50.0717L1.74362 50.4525C1.74362 50.4525 8.4729 51.9484 13.8945 54.5322C17.2727 56.1369 21.0597 56.8441 25.1735 56.7625V64.4595L13.4858 85.5653L15.1477 85.4293C19.1526 85.0757 22.6943 84.3414 25.9091 83.3894C25.6639 83.471 25.4187 83.5798 25.1735 83.6614V99.2731H42.3373C44.4623 105.366 49.0665 114.586 52.7445 115.864C53.4256 116.109 54.0794 116.082 54.6788 115.81C54.8695 115.728 55.0875 115.592 55.2509 115.456C58.275 112.954 59.8279 104.468 60.4001 99.2731H90.5865V56.6809C90.5865 56.6809 90.8589 56.5721 90.9951 56.4905C92.875 55.5114 94.4279 53.9339 94.891 51.9756C95.3542 49.9086 94.5641 47.7327 93.774 45.6928L93.7468 45.6656ZM88.0255 36.5271C85.2194 34.324 81.4597 33.3449 77.8363 32.9369C74.3763 32.5561 70.8073 32.5833 67.5652 33.6169C67.3745 33.6713 67.2111 33.7257 67.0204 33.8073C65.6037 34.324 64.296 35.0312 63.179 35.9559C63.07 36.0375 62.9882 36.1463 62.8793 36.2279V36.0375C65.6582 31.7402 70.5348 26.2462 70.6166 26.1646C73.6134 22.52 76.1199 18.9843 78.1359 15.0678C84.0207 20.4258 87.7803 28.0413 87.9983 36.5543L88.0255 36.5271ZM60.509 47.5967C60.7542 48.2495 61.0812 48.9022 61.4626 49.5278C60.9994 49.5278 60.6997 49.5278 60.6997 49.5278C60.6997 49.5278 60.4001 49.5278 59.9097 49.555C60.1276 48.9022 60.3183 48.2495 60.5363 47.5967H60.509ZM57.8936 7.1803C65.0315 7.1803 71.6246 9.68252 76.801 13.8438C74.9756 17.4612 72.5782 21.0513 69.3361 25.0223C69.1726 25.2127 65.9851 28.8028 63.2607 32.5018C59.0923 35.2488 56.6131 34.2968 52.9079 32.8553C48.2492 31.0331 41.8469 28.5308 28.9059 32.4474C28.8514 32.4474 28.5518 32.5561 28.1159 32.7193C30.3499 18.3043 42.8549 7.2075 57.9209 7.2075L57.8936 7.1803ZM12.505 41.6947C15.6381 39.4373 21.0869 37.1526 24.9555 35.6839L25.2007 35.6023H25.2552C25.9636 35.3032 27.7889 34.6232 28.688 34.324C29.0966 34.188 29.3691 34.1064 29.3691 34.0792C41.7106 30.3259 47.5409 32.6105 52.1996 34.4328C53.5618 34.9768 54.815 35.4391 56.0955 35.7383C52.3631 36.4727 47.5681 37.479 44.1898 38.4581C43.0456 38.7845 41.7106 39.1925 40.2395 39.6277C36.7522 40.6612 32.6111 41.8851 28.6607 42.9458L28.3066 43.0274C28.0886 43.0818 27.8434 43.1634 27.6255 43.2178L25.119 43.8434C25.119 43.8434 24.9828 43.8706 24.9011 43.8978L24.6831 43.9522C22.6398 44.4145 20.7327 44.8225 19.2071 45.0401C14.6301 45.6384 9.34471 46.4544 5.42157 47.4607C7.13794 45.8832 9.48093 43.8434 12.4233 41.6947H12.505ZM24.6286 54.9674C24.6286 54.9674 24.3834 54.9674 24.2744 54.9674C24.1655 54.9674 24.111 54.9674 24.0293 54.9402C20.6237 54.8858 17.4907 54.2602 14.6573 52.9275C11.2245 51.2957 7.41038 50.0989 4.90393 49.419C8.85432 48.2495 14.9025 47.3791 19.534 46.7808C20.9507 46.5904 22.6126 46.264 24.4379 45.856L28.5518 44.8497C32.6929 43.7618 37.1336 42.4563 40.8388 41.3683C42.2828 40.9332 43.6177 40.5252 44.762 40.1988C47.0505 39.5461 49.3662 39.0021 51.682 38.5125C52.8807 38.2406 54.0794 37.9958 55.2782 37.751C56.259 37.5606 57.267 37.2614 58.275 37.343C58.602 37.343 58.8744 37.4518 59.1468 37.5334C57.1853 38.7845 54.7605 39.3285 54.6516 39.3557C43.4815 42.9458 35.7442 49.9357 31.9028 54.0971C30.8948 54.3146 29.8867 54.505 28.9059 54.641C28.9059 54.641 28.6607 54.6682 28.4155 54.6954C28.1703 54.7226 27.9524 54.777 27.7072 54.777C27.1351 54.777 26.3178 54.8586 25.2007 54.913V54.9674C25.01 54.9674 24.8466 54.9674 24.6559 54.9674H24.6286ZM27.68 56.5993C27.68 56.5993 29.1511 56.4089 29.9412 56.3001C29.4236 56.9257 29.1239 57.3608 29.0422 57.4424L27.68 59.9175V56.5993ZM30.5406 58.3944C30.5406 58.3944 39.5584 46.0192 55.0602 41.042C55.1964 41.042 56.9673 40.634 58.8471 39.6821C56.7766 43.0274 52.9897 47.9503 46.5056 53.4171C41.2202 57.8776 35.9349 63.562 30.813 69.056C25.8274 74.4141 21.0597 79.5001 17.4089 82.1655L30.5406 58.3944ZM32.1207 70.2527C37.1881 64.7859 42.4462 59.1559 47.6498 54.777C53.8342 49.555 57.5939 44.8497 59.8279 41.4227C59.8007 41.6403 59.7734 41.8307 59.7462 42.0211C59.6645 42.6195 59.6645 43.2178 59.6917 43.8162C59.2013 45.856 58.602 47.8959 57.8936 49.9086C56.0138 50.4253 53.698 51.6492 52.472 54.4506C50.6467 58.6119 49.6931 62.5557 49.7476 65.6019C48.0858 67.8593 46.3694 69.7088 44.762 70.9327C39.068 75.2572 31.4396 80.996 19.1526 83.0631C22.8033 80.2345 27.2168 75.502 32.1207 70.2255V70.2527ZM41.3565 95.9278C41.411 96.1726 41.4927 96.4717 41.5744 96.7709H27.7072V82.8183C29.2329 82.3015 30.704 81.7032 32.0662 81.0776C36.2891 79.1737 39.7218 76.8891 42.6914 74.7132C41.302 83.9334 40.7299 92.8816 41.3837 95.9278H41.3565ZM53.3166 114.205C50.8919 113.362 47.1595 106.78 44.8709 101.068C44.2171 99.5451 43.6995 97.8589 43.3998 96.7709C43.2908 96.4174 43.2363 96.091 43.1546 95.7646L43.1001 95.5742C42.4462 92.5008 43.1546 82.8183 44.7075 73.2173C45.0889 72.9182 45.4703 72.6462 45.8245 72.3742C47.1867 71.3135 48.6306 69.8992 50.0201 68.1585C50.1563 68.7025 50.347 69.3008 50.6194 70.008C50.7012 72.5918 50.8919 76.0459 51.1643 80.6968C51.6275 88.3939 51.5457 92.8544 51.464 96.4174V96.7437V99.7355C51.464 103.625 51.8454 107.025 53.6435 114.205C53.5346 114.205 53.4528 114.205 53.3166 114.178V114.205ZM60.2911 82.9815C59.5282 89.2098 58.9016 94.1327 58.9016 95.5198C58.9016 95.8462 58.9016 96.3086 58.8471 96.7709H58.7927C58.7109 97.6957 58.6292 98.5932 58.5747 99.2731H58.602C58.5747 99.5995 58.5202 99.9803 58.4657 100.334V100.47C57.8936 104.74 56.7494 110.152 55.0875 112.872C53.6708 107.133 53.2894 103.978 53.2076 100.769V100.66C53.1531 99.2459 53.2076 95.5742 53.2076 95.5742H53.2621C53.3166 92.0928 53.3439 87.7411 52.9352 80.6152C52.7717 78.0586 52.6627 75.8828 52.581 74.0333C54.3791 77.0795 57.049 80.1801 60.4818 81.54C60.4273 82.0295 60.3728 82.5191 60.2911 83.0087V82.9815ZM88.08 96.7709H60.618C60.6453 96.2542 60.6725 95.7918 60.6725 95.5198C60.6725 94.2415 61.3264 88.8835 62.0347 83.1991L62.1709 82.0839C67.8377 83.4982 71.6791 80.6696 73.0685 79.2825C74.567 77.7866 79.9068 71.3407 75.8202 60.135C75.5205 59.3463 75.1936 58.6391 74.8666 57.9592C78.1359 58.5576 81.5142 58.5576 84.7562 58.1768C85.8732 58.0408 86.9903 57.8776 88.08 57.6056V96.7981V96.7709Z" fill="#FCFBF5"></path></svg>